<svg id="booking_1_" data-name="booking (1)" xmlns="http://www.w3.org/2000/svg" width="90.453" height="90.453" viewBox="0 0 90.453 90.453">
  <path id="Caminho_189" data-name="Caminho 189" d="M238.865,367.4h6.054v6.054h-6.054Z" transform="translate(-196.666 -302.493)" fill="#337ab7"/>
  <path id="Caminho_190" data-name="Caminho 190" d="M375.434,367.4h6.054v6.054h-6.054Z" transform="translate(-309.108 -302.493)" fill="#337ab7"/>
  <path id="Caminho_191" data-name="Caminho 191" d="M102.3,238.867h6.054v6.054H102.3Z" transform="translate(-84.226 -196.667)" fill="#337ab7"/>
  <path id="Caminho_192" data-name="Caminho 192" d="M102.3,367.4h6.054v6.054H102.3Z" transform="translate(-84.226 -302.493)" fill="#337ab7"/>
  <path id="Caminho_193" data-name="Caminho 193" d="M80.707,5.677H78.722V14a2.65,2.65,0,1,1-5.3,0V2.65a2.65,2.65,0,0,0-5.3,0V5.677H61.692V14a2.65,2.65,0,0,1-5.3,0V2.65a2.65,2.65,0,1,0-5.3,0V5.677H44.661V14a2.65,2.65,0,1,1-5.3,0V2.65a2.65,2.65,0,1,0-5.3,0V5.677H27.631V14a2.65,2.65,0,1,1-5.3,0V2.65a2.65,2.65,0,0,0-5.3,0V5.677H9.746A9.757,9.757,0,0,0,0,15.423v7.284H90.453V15.423A9.757,9.757,0,0,0,80.707,5.677Z" transform="translate(0)" fill="#337ab7"/>
  <path id="Caminho_194" data-name="Caminho 194" d="M0,211.232a9.757,9.757,0,0,0,9.746,9.746H80.706a9.757,9.757,0,0,0,9.746-9.746v-52.7H0Zm53.553-7.1a2.65,2.65,0,0,1-2.65,2.65H39.549a2.65,2.65,0,0,1-2.65-2.65V192.783a2.65,2.65,0,0,1,2.65-2.65H50.9a2.65,2.65,0,0,1,2.65,2.65Zm7.473-34.061a2.65,2.65,0,0,1,2.65-2.65H75.03a2.65,2.65,0,0,1,2.65,2.65v11.354a2.65,2.65,0,0,1-2.65,2.65H63.676a2.65,2.65,0,0,1-2.65-2.65Zm0,22.707a2.65,2.65,0,0,1,2.65-2.65H75.03a2.65,2.65,0,0,1,2.65,2.65v11.354a2.65,2.65,0,0,1-2.65,2.65H63.676a2.65,2.65,0,0,1-2.65-2.65Zm-23.695-18.9a2.65,2.65,0,0,1,3.748,0l2.14,2.14,6.154-6.154a2.65,2.65,0,0,1,3.748,3.748l-8.028,8.028a2.65,2.65,0,0,1-3.748,0l-4.014-4.014a2.65,2.65,0,0,1,0-3.747Zm-24.559-3.8a2.65,2.65,0,0,1,2.65-2.65H26.777a2.65,2.65,0,0,1,2.65,2.65v11.354a2.65,2.65,0,0,1-2.65,2.65H15.423a2.65,2.65,0,0,1-2.65-2.65Zm0,22.707a2.65,2.65,0,0,1,2.65-2.65H26.777a2.65,2.65,0,0,1,2.65,2.65v11.354a2.65,2.65,0,0,1-2.65,2.65H15.423a2.65,2.65,0,0,1-2.65-2.65Z" transform="translate(0 -130.526)" fill="#337ab7"/>
  <path id="Caminho_195" data-name="Caminho 195" d="M375.434,238.867h6.054v6.054h-6.054Z" transform="translate(-309.108 -196.667)" fill="#337ab7"/>
</svg>
