<svg xmlns="http://www.w3.org/2000/svg" width="205.101" height="234.401" viewBox="0 0 205.101 234.401">
  <path id="Icon_awesome-calendar-alt" data-name="Icon awesome-calendar-alt" d="M0,212.426A21.981,21.981,0,0,0,21.975,234.4H183.126A21.981,21.981,0,0,0,205.1,212.426V87.9H0Zm146.5-89.732a5.51,5.51,0,0,1,5.494-5.494h18.313a5.51,5.51,0,0,1,5.494,5.494v18.313a5.51,5.51,0,0,1-5.494,5.494H151.994a5.51,5.51,0,0,1-5.494-5.494Zm0,58.6a5.51,5.51,0,0,1,5.494-5.494h18.313a5.51,5.51,0,0,1,5.494,5.494v18.313a5.51,5.51,0,0,1-5.494,5.494H151.994a5.51,5.51,0,0,1-5.494-5.494Zm-58.6-58.6a5.51,5.51,0,0,1,5.494-5.494h18.313a5.51,5.51,0,0,1,5.494,5.494v18.313a5.51,5.51,0,0,1-5.494,5.494H93.394a5.51,5.51,0,0,1-5.494-5.494Zm0,58.6a5.51,5.51,0,0,1,5.494-5.494h18.313a5.51,5.51,0,0,1,5.494,5.494v18.313a5.51,5.51,0,0,1-5.494,5.494H93.394a5.51,5.51,0,0,1-5.494-5.494Zm-58.6-58.6a5.51,5.51,0,0,1,5.494-5.494H53.106a5.51,5.51,0,0,1,5.494,5.494v18.313a5.51,5.51,0,0,1-5.494,5.494H34.794a5.51,5.51,0,0,1-5.494-5.494Zm0,58.6a5.51,5.51,0,0,1,5.494-5.494H53.106a5.51,5.51,0,0,1,5.494,5.494v18.313a5.51,5.51,0,0,1-5.494,5.494H34.794a5.51,5.51,0,0,1-5.494-5.494ZM183.126,29.3H161.151V7.325A7.347,7.347,0,0,0,153.826,0h-14.65a7.347,7.347,0,0,0-7.325,7.325V29.3H73.25V7.325A7.347,7.347,0,0,0,65.925,0H51.275A7.347,7.347,0,0,0,43.95,7.325V29.3H21.975A21.981,21.981,0,0,0,0,51.275V73.25H205.1V51.275A21.981,21.981,0,0,0,183.126,29.3Z" fill="#337ab7"/>
</svg>
