<svg xmlns="http://www.w3.org/2000/svg" width="212.785" height="212.784" viewBox="0 0 212.785 212.784">
  <path id="Icon_awesome-phone-alt" data-name="Icon awesome-phone-alt" d="M206.715,150.362l-46.547-19.949a9.974,9.974,0,0,0-11.637,2.868l-20.614,25.185a154.046,154.046,0,0,1-73.64-73.64L79.463,64.212A9.949,9.949,0,0,0,82.33,52.575L62.382,6.028A10.041,10.041,0,0,0,50.953.251L7.73,10.226A9.974,9.974,0,0,0,0,19.947c0,106.6,86.4,192.838,192.838,192.838a9.974,9.974,0,0,0,9.725-7.73l9.974-43.222a10.1,10.1,0,0,0-5.823-11.471Z" transform="translate(0 0)" fill="#337ab7"/>
</svg>
