<svg xmlns="http://www.w3.org/2000/svg" width="142.177" height="157.975" viewBox="0 0 142.177 157.975">
  <g id="Iconly_Bold_Document" data-name="Iconly/Bold/Document" transform="translate(-3 -2)">
    <g id="Document" transform="translate(3 2)">
      <path id="Caminho_210" data-name="Caminho 210" d="M104.192,0c24.4,0,37.985,14.06,37.985,38.151h0v81.594c0,24.486-13.586,38.23-37.985,38.23h-66.2C13.981,157.975,0,144.231,0,119.745H0V38.151C0,14.06,13.981,0,37.993,0h66.2ZM40.126,108.529a6.2,6.2,0,0,0-5.924,2.923,6.279,6.279,0,0,0,0,6.635,6.136,6.136,0,0,0,5.924,2.844h61.926a6.241,6.241,0,0,0,0-12.4H40.126ZM102.052,72.5H40.126a6.165,6.165,0,0,0,0,12.33h61.926a6.165,6.165,0,0,0,0-12.33ZM63.735,36.729H40.126v.079a6.161,6.161,0,0,0,0,12.322H63.735a6.2,6.2,0,0,0,0-12.4Z" fill="#337ab7"/>
    </g>
  </g>
</svg>
