<?xml version="1.0" encoding="utf-8"?>
<!-- Generator: Adobe Illustrator 28.3.0, SVG Export Plug-In . SVG Version: 6.00 Build 0)  -->
<svg version="1.1" id="Layer_1" xmlns="http://www.w3.org/2000/svg" xmlns:xlink="http://www.w3.org/1999/xlink" x="0px" y="0px"
	 viewBox="0 0 1005 214" style="enable-background:new 0 0 1005 214;" xml:space="preserve">
<style type="text/css">
	.st0{opacity:0.65;fill-rule:evenodd;clip-rule:evenodd;fill:#C9181A;}
	.st1{fill:#FFFFFF;}
</style>
<g id="XMLID_67_">
	<g id="XMLID_242_">
		<g id="XMLID_243_">
			<path id="XMLID_266_" class="st0" d="M466.1,71.1c0-22,17.9-39.9,40.1-39.9c22.2,0,40.2,17.9,40.2,39.9c0,22.1-18,39.9-40.2,39.9
				C484.1,111,466.1,93.1,466.1,71.1L466.1,71.1z M438,76.1c0,16.7,20.4,51.9,20.4,51.9l47.8,79.8l45.2-79.8
				c0,0,23.1-35.4,23.1-51.9c0-37.5-30.6-67.8-68.3-67.8C468.6,8.2,438,38.6,438,76.1L438,76.1z"/>
			<g id="XMLID_244_">
				<g id="XMLID_245_">
					<g id="XMLID_254_">
						<g id="XMLID_255_">
							<path id="XMLID_264_" class="st1" d="M614.4,72.1h34l13.1,51l13-51h34v83.8h-21.2V92l-16.3,63.9h-19.2L635.6,92v63.9h-21.2
								V72.1z"/>
							<path id="XMLID_261_" class="st1" d="M776.6,142.1h-29.4l-4.1,13.8h-26.4l31.5-83.8h28.2l31.5,83.8h-27.1L776.6,142.1z
								 M771.3,124L762,93.9l-9.1,30.1H771.3z"/>
							<path id="XMLID_258_" class="st1" d="M816,72.1h43c9.4,0,16.4,2.2,21.1,6.7c4.7,4.5,7,10.8,7,19c0,8.5-2.6,15.1-7.7,19.8
								c-5.1,4.8-12.8,7.1-23.3,7.1H842v31.1h-26V72.1z M842,107.9h6.4c5,0,8.5-0.9,10.5-2.6c2-1.7,3-3.9,3-6.7
								c0-2.6-0.9-4.8-2.6-6.7c-1.8-1.8-5.1-2.7-9.9-2.7H842V107.9z"/>
							<path id="XMLID_256_" class="st1" d="M896.1,128.2l24.6-1.5c0.5,4,1.6,7.1,3.3,9.1c2.7,3.4,6.5,5.1,11.4,5.1
								c3.7,0,6.5-0.9,8.5-2.6c2-1.7,3-3.7,3-6c0-2.2-0.9-4.1-2.9-5.8c-1.9-1.7-6.3-3.3-13.2-4.8c-11.4-2.6-19.5-5.9-24.3-10.2
								c-4.9-4.2-7.3-9.6-7.3-16.2c0-4.3,1.3-8.4,3.7-12.2c2.5-3.8,6.3-6.8,11.2-9c5-2.2,11.9-3.3,20.6-3.3c10.7,0,18.9,2,24.5,6
								c5.6,4,9,10.3,10,19L945,97.1c-0.7-3.8-2-6.5-4.1-8.2c-2.1-1.7-4.9-2.6-8.6-2.6c-3,0-5.3,0.6-6.8,1.9
								c-1.5,1.3-2.3,2.8-2.3,4.7c0,1.3,0.6,2.5,1.9,3.6c1.2,1.1,4.1,2.1,8.7,3.1c11.3,2.4,19.4,4.9,24.3,7.4
								c4.9,2.5,8.4,5.6,10.7,9.3c2.3,3.7,3.4,7.8,3.4,12.4c0,5.3-1.5,10.3-4.5,14.9c-3,4.5-7.1,8-12.5,10.3
								c-5.3,2.3-12.1,3.5-20.2,3.5c-14.2,0-24.1-2.7-29.6-8.2C899.9,143.6,896.9,136.7,896.1,128.2z"/>
						</g>
					</g>
					<path id="XMLID_250_" class="st1" d="M99.3,88.4l11.2,34c0.1,0.1,0.1,0.3,0.2,0.5c1.7,4.8,2.7,8.6,3.2,11.4
						c0.3-1.6,0.7-3.3,1.1-5.1c0.5-1.8,1.2-4.1,2.1-6.8l11.4-34h27.7l-31.8,76.9h-18.9l-11.3-34.8c-0.6-2-1.1-4-1.6-6
						c-0.5-2-0.9-4-1.3-6c-0.5,3-1.5,6.9-2.9,11.5l-0.2,0.5L77,165.3H58.1L26.5,88.4H54l11.3,34c0.9,2.5,1.5,4.7,2,6.5
						c0.5,1.8,0.9,3.7,1.2,5.4c0.4-2.5,1.4-6.1,2.9-10.6c0.2-0.6,0.3-1.1,0.4-1.3l11.3-34H99.3z M220.5,126.7c0-6-1.6-10.7-4.7-14.2
						c-3.1-3.5-7.4-5.2-12.9-5.2c-5.4,0-9.8,1.7-12.9,5.2c-3.1,3.4-4.7,8.2-4.7,14.3c0,6,1.6,10.7,4.7,14.2
						c3.1,3.5,7.4,5.2,12.8,5.2c5.4,0,9.7-1.7,12.9-5.2C219,137.4,220.5,132.7,220.5,126.7z M244,88.4v76.9h-24.5v-12.5
						c-3.5,5.3-7.4,9.2-11.8,11.7c-4.4,2.5-9.5,3.7-15.4,3.7c-10.1,0-18.2-3.7-24.3-11.2c-6-7.5-9.1-17.5-9.1-30.1
						c0-12.5,3.2-22.5,9.5-29.9c6.3-7.4,14.8-11.1,25.5-11.1c5.7,0,10.6,1.2,14.8,3.7c4.1,2.5,7.6,6.3,10.6,11.4V88.4H244z"/>
					<path id="XMLID_249_" class="st1" d="M279.6,138.2l-34.1-76.9h28.5l12.9,34c0.2,0.3,0.4,0.8,0.5,1.3c1.6,4.5,2.7,8,3.1,10.8
						c0.4-2.5,1.3-5.8,2.9-10c0.4-0.9,0.6-1.6,0.7-2.1l12.9-34H335l-34.4,76.9H279.6z"/>
					<path id="XMLID_246_" class="st1" d="M380.5,116.9c-0.5-4.4-2.2-7.8-4.9-10.5c-2.8-2.6-6.2-3.9-10.3-3.9
						c-4.4,0-7.8,1.2-10.4,3.6c-2.6,2.4-4.3,6-5.1,10.8H380.5z M406.8,132.2h-57.6c0.1,6,1.6,10.5,4.5,13.7c3,3.2,7.1,4.8,12.5,4.8
						c4.1,0,7.5-0.8,10.3-2.3c2.8-1.6,4.9-3.9,6.3-6.9l20.1,8.3c-2.4,5.9-6.7,10.4-12.7,13.6c-6.1,3.2-13.6,4.8-22.4,4.8
						c-13.2,0-23.8-3.7-31.8-11.1c-7.9-7.4-11.9-17.3-11.9-29.4c0-12,4-21.9,11.9-29.8c8-7.9,18.1-11.9,30.3-11.9
						c12.6,0,22.5,4,29.7,12c7.3,8,10.9,19,10.9,32.9V132.2z"/>
				</g>
			</g>
		</g>
	</g>
</g>
</svg>
